<?xml version="1.0" encoding="UTF-8"?>
<svg id="Layer_1" xmlns="http://www.w3.org/2000/svg" version="1.1" viewBox="0 0 512 512">
  <!-- Generator: Adobe Illustrator 30.0.0, SVG Export Plug-In . SVG Version: 2.1.1 Build 123)  -->
  <defs>
    <style>
      .st0 {
        fill: #fff;
      }
    </style>
  </defs>
  <path class="st0" d="M256,48c114.9,0,208,93.1,208,208s-93.1,208-208,208S48,370.9,48,256,141.1,48,256,48ZM256,512c141.4,0,256-114.6,256-256S397.4,0,256,0,0,114.6,0,256s114.6,256,256,256ZM167,167c-9.4,9.4-9.4,24.6,0,33.9l55,55-55,55c-9.4,9.4-9.4,24.6,0,33.9s24.6,9.4,33.9,0l55-55,55,55c9.4,9.4,24.6,9.4,33.9,0s9.4-24.6,0-33.9l-55-55,55-55c9.4-9.4,9.4-24.6,0-33.9s-24.6-9.4-33.9,0l-55,55-55-55c-9.4-9.4-24.6-9.4-33.9,0Z"/>
</svg>