<svg width="33" height="25" viewBox="0 0 33 25" fill="none" xmlns="http://www.w3.org/2000/svg">
<path d="M3.09375 0C1.38574 0 0 1.39974 0 3.125C0 4.10807 0.457617 5.03255 1.2375 5.625L14.6437 15.7812C15.7459 16.6146 17.2541 16.6146 18.3562 15.7812L31.7625 5.625C32.5424 5.03255 33 4.10807 33 3.125C33 1.39974 31.6143 0 29.9062 0H3.09375ZM0 8.59375V20.8333C0 23.1315 1.8498 25 4.125 25H28.875C31.1502 25 33 23.1315 33 20.8333V8.59375L20.2125 18.2812C18.0146 19.9479 14.9854 19.9479 12.7875 18.2812L0 8.59375Z" fill="white"/>
</svg>
