<svg width="123" height="123" viewBox="0 0 123 123" fill="none" xmlns="http://www.w3.org/2000/svg">
<path d="M123 61.5C123 95.4655 95.4654 123 61.5 123C27.5345 123 0.000106836 95.4655 0.000106836 61.5C0.000106836 27.5345 27.5345 0 61.5 0C95.4654 0 123 27.5345 123 61.5Z" fill="white"/>
<path d="M61.5 0C77.1423 0 92.1968 5.96051 103.6 16.6684L61.5 61.5V0Z" fill="#EAEAEA"/>
<path d="M103.6 16.6684C114.032 26.4652 120.721 39.5936 122.515 53.792C124.309 67.9904 121.094 82.3699 113.426 94.4533C105.758 106.537 94.1153 115.568 80.5045 119.99C66.8937 124.412 52.1666 123.95 38.8604 118.681C25.5541 113.413 14.5017 103.669 7.60723 91.1278C0.712725 78.5868 -1.59222 64.0338 1.08944 49.976C3.77111 35.9182 11.2715 23.2358 22.2985 14.1134C33.3255 4.99107 47.1887 -2.50226e-06 61.5 0V61.5L103.6 16.6684Z" fill="#505050"/>
</svg>
