<svg width="123" height="123" viewBox="0 0 123 123" fill="none" xmlns="http://www.w3.org/2000/svg">
<path d="M123 61.5C123 95.4655 95.4655 123 61.5 123C27.5345 123 4.2806e-05 95.4655 4.2806e-05 61.5C4.2806e-05 27.5345 27.5345 0 61.5 0C95.4655 0 123 27.5345 123 61.5Z" fill="white"/>
<path d="M61.5 0C74.1576 0 86.507 3.90558 96.8628 11.1838C107.219 18.462 115.077 28.7583 119.364 40.6676C123.652 52.5769 124.16 65.5191 120.82 77.7282C117.48 89.9372 110.454 100.818 100.702 108.887C90.9487 116.955 78.9439 121.817 66.3252 122.81C53.7066 123.803 41.0889 120.879 30.194 114.436C19.299 107.992 10.6575 98.3443 5.44874 86.8081C0.239941 75.2719 -1.28243 62.4095 1.08938 49.976L61.5 61.5V0Z" fill="#EAEAEA"/>
<path d="M1.08938 49.976C3.77105 35.9182 11.2714 23.2358 22.2985 14.1134C33.3255 4.99107 47.1887 -2.50226e-06 61.5 0V61.5L1.08938 49.976Z" fill="#505050"/>
</svg>
