<svg width="123" height="123" viewBox="0 0 123 123" fill="none" xmlns="http://www.w3.org/2000/svg">
<path d="M123 61.5C123 95.4655 95.4654 123 61.5 123C27.5345 123 8.27913e-05 95.4655 8.27913e-05 61.5C8.27913e-05 27.5345 27.5345 0 61.5 0C95.4654 0 123 27.5345 123 61.5Z" fill="#EAEAEA"/>
<path d="M61.5 0C76.1433 0 90.3061 5.22494 101.441 14.735C112.576 24.2451 119.952 37.4162 122.243 51.8793C124.533 66.3423 121.588 81.1481 113.937 93.6337C106.286 106.119 94.4311 115.465 80.5045 119.99C66.5779 124.515 51.4936 123.922 37.965 118.319C24.4363 112.715 13.3511 102.468 6.70317 89.4204C0.0552444 76.3731 -1.71908 61.3819 1.69933 47.1431C5.11774 32.9044 13.5045 20.3526 25.3512 11.7455L61.5 61.5V0Z" fill="#EAEAEA"/>
<path d="M25.3512 11.7455C35.8584 4.11158 48.5125 -2.27081e-06 61.5 0V61.5L25.3512 11.7455Z" fill="#505050"/>
</svg>
